<?xml version="1.0" encoding="utf-8"?>
<!-- Generator: Adobe Illustrator 19.0.0, SVG Export Plug-In . SVG Version: 6.00 Build 0)  -->
<svg version="1.1" xmlns="http://www.w3.org/2000/svg" xmlns:xlink="http://www.w3.org/1999/xlink" x="0px" y="0px"
	 viewBox="0 0 283.8 283.9" style="enable-background:new 0 0 283.8 283.9;" xml:space="preserve">
<style type="text/css">
	.st0{display:none;}
	.st1{display:inline;fill:#C2C1C1;}
	.st2{fill:#C2C1C1;}
	.st3{fill:#FFFFFF;}
</style>
<g id="Layer_1">
	<g id="XMLID_3_" class="st0">
		<path id="XMLID_2_" class="st1" d="M255.9,141.9c0,63-51,114-114,114s-114-51-114-114s51-114,114-114S255.9,78.9,255.9,141.9z
			 M283.8,141.9c0,78.4-63.5,141.9-141.9,141.9S0,220.3,0,141.9S63.5,0,141.9,0S283.8,63.5,283.8,141.9z M268.7,141.9
			c0-70-56.8-126.7-126.8-126.7S15.1,71.9,15.1,141.9s56.8,126.7,126.8,126.7S268.7,211.9,268.7,141.9z M232.6,173.3H51.3v2.7h22.2
			l4.8,8.6h127.3l5.7-8.6h21.3V173.3z M145.9,86.2c0.5-0.7,0.8-1.6,0.8-2.5c0-2.5-2-4.5-4.5-4.5s-4.5,2-4.5,4.5
			c0,0.9,0.3,1.8,0.8,2.5c-42.3,1.9-76,36.7-76,79.3h159.5C221.9,122.9,188.2,88.1,145.9,86.2z M166.8,138.4h20.3
			c0.3-0.8,0.6-1.7,0.7-2.6h-21v-2.6h21c-0.1-0.9-0.4-1.8-0.7-2.7h-20.3v-2.8h18.7c-3.2-4.2-9.4-7.1-16.5-7.1
			c-10.4,0-18.9,6.2-18.9,13.8c0,7.6,8.4,13.8,18.9,13.8c7.2,0,13.5-2.9,16.6-7.3h-18.8V138.4z M151.2,131.1H89v6.7h62.2V131.1z"/>
	</g>
</g>
<g id="Layer_2">
	<g id="XMLID_8_">
		<path id="XMLID_115_" class="st2" d="M141.9,0C63.5,0,0,63.5,0,141.9s63.5,141.9,141.9,141.9s141.9-63.5,141.9-141.9
			S220.3,0,141.9,0z M141.9,268.6c-70,0-126.8-56.7-126.8-126.7S71.9,15.1,141.9,15.1s126.8,56.7,126.8,126.7S212,268.6,141.9,268.6
			z"/>
		<ellipse id="XMLID_118_" class="st2" cx="141.9" cy="141.9" rx="114" ry="114"/>
		<path id="XMLID_104_" class="st3" d="M152.3,146.7c0.6-1.4,7.5-14.9,10.7-18.8l1.1,1.2l2.9-2.8c0,0,5.1-10.5,15.5-15.9
			c0,0,27.1-27.2,28.1-28c0,0,3.2-2.9,0.6-6.5c-2.2-3.1-6.2-2.5-8-0.4c-1.9,2.1-27.8,27.9-27.8,27.9s-8.9,13-16.5,15.4l-2.5,2.6
			l1.4,1.2c0,0-2.1,2.3-6.7,4.9s-19.7,9.9-21.7,11c-2,1-18.6,9.2-22.3,13.5c-3.7,4.3-5.6,8.6-5.6,9.9H70.2c0,39,31.7,70.6,70.9,70.6
			s70.9-31.6,70.9-70.6h-66.7C146.8,158.3,151.8,147.9,152.3,146.7z M208.8,77.6c3.4,3.4-5.9,7.5-6.8,6.5
			C201.2,83.1,204.8,73.5,208.8,77.6z M109,153c3.9-3,10.2-6.9,15.2-9.5s16.7-8.3,16.7-8.3s-21.7,14-23.8,15.5
			c-2.1,1.5-9,4.6-10.7,11h-2.6C104.2,160.4,105.7,155.6,109,153z M111.4,161.8h-2.6c0.6-1.3,2.1-4.4,4-5.7
			c2.5-1.6,22.1-14.5,22.1-14.5s-18.5,14.5-19.2,15.1C115.2,157.1,112.4,159.1,111.4,161.8z M113.8,161.8c0.4-0.6,1.2-1.7,2.7-2.8
			c2.4-1.9,25.4-19.9,25.4-19.9s-18.9,17.1-23.7,22.7H113.8z M121.2,161.8c2.8-2.7,16.2-15.7,20.7-19.8c5-4.6,17-16,18.4-16.5
			c0,0-2.6,3.3-4.9,5.9c-2.4,2.6-25.7,27.7-28.4,30.4H121.2z M147.4,143.3l-14.3,18.4H130C130,161.8,146.1,144.8,147.4,143.3z
			 M144.9,149.8l-7.5,11.9h-1.6L144.9,149.8z M140,161.8l11.4-17.9l-9,17.9H140z"/>
	</g>
</g>
</svg>
