<?xml version="1.0" encoding="utf-8"?>
<!-- Generator: Adobe Illustrator 19.0.0, SVG Export Plug-In . SVG Version: 6.00 Build 0)  -->
<svg version="1.1" xmlns="http://www.w3.org/2000/svg" xmlns:xlink="http://www.w3.org/1999/xlink" x="0px" y="0px"
	 viewBox="0 0 283.8 283.9" style="enable-background:new 0 0 283.8 283.9;" xml:space="preserve">
<style type="text/css">
	.st0{display:none;}
	.st1{display:inline;fill:#C2C1C1;}
	.st2{display:inline;fill:#FFFFFF;}
	.st3{fill:#C2C1C1;}
	.st4{fill:#FFFFFF;}
	.st5{fill:#C2C1C1;stroke:#FFFFFF;stroke-width:3;stroke-miterlimit:10;}
	.st6{fill:#C2C1C1;stroke:#FFFFFF;stroke-width:4;stroke-miterlimit:10;}
</style>
<g id="Layer_1">
	<g id="XMLID_3_" class="st0">
		<path id="XMLID_2_" class="st1" d="M255.9,141.9c0,63-51,114-114,114s-114-51-114-114s51-114,114-114S255.9,78.9,255.9,141.9z
			 M283.8,141.9c0,78.4-63.5,141.9-141.9,141.9S0,220.3,0,141.9S63.5,0,141.9,0S283.8,63.5,283.8,141.9z M268.7,141.9
			c0-70-56.8-126.7-126.8-126.7S15.1,71.9,15.1,141.9s56.8,126.7,126.8,126.7S268.7,211.9,268.7,141.9z M232.6,173.3H51.3v2.7h22.2
			l4.8,8.6h127.3l5.7-8.6h21.3V173.3z M145.9,86.2c0.5-0.7,0.8-1.6,0.8-2.5c0-2.5-2-4.5-4.5-4.5s-4.5,2-4.5,4.5
			c0,0.9,0.3,1.8,0.8,2.5c-42.3,1.9-76,36.7-76,79.3h159.5C221.9,122.9,188.2,88.1,145.9,86.2z M166.8,138.4h20.3
			c0.3-0.8,0.6-1.7,0.7-2.6h-21v-2.6h21c-0.1-0.9-0.4-1.8-0.7-2.7h-20.3v-2.8h18.7c-3.2-4.2-9.4-7.1-16.5-7.1
			c-10.4,0-18.9,6.2-18.9,13.8c0,7.6,8.4,13.8,18.9,13.8c7.2,0,13.5-2.9,16.6-7.3h-18.8V138.4z M151.2,131.1H89v6.7h62.2V131.1z"/>
	</g>
</g>
<g id="Layer_2">
	<g id="XMLID_8_" class="st0">
		<path id="XMLID_115_" class="st1" d="M141.9,0C63.5,0,0,63.5,0,141.9s63.5,141.9,141.9,141.9s141.9-63.5,141.9-141.9
			S220.3,0,141.9,0z M141.9,268.6c-70,0-126.8-56.7-126.8-126.7S71.9,15.1,141.9,15.1s126.8,56.7,126.8,126.7S212,268.6,141.9,268.6
			z"/>
		<ellipse id="XMLID_118_" class="st1" cx="141.9" cy="141.9" rx="114" ry="114"/>
		<path id="XMLID_104_" class="st2" d="M152.3,146.7c0.6-1.4,7.5-14.9,10.7-18.8l1.1,1.2l2.9-2.8c0,0,5.1-10.5,15.5-15.9
			c0,0,27.1-27.2,28.1-28c0,0,3.2-2.9,0.6-6.5c-2.2-3.1-6.2-2.5-8-0.4c-1.9,2.1-27.8,27.9-27.8,27.9s-8.9,13-16.5,15.4l-2.5,2.6
			l1.4,1.2c0,0-2.1,2.3-6.7,4.9s-19.7,9.9-21.7,11c-2,1-18.6,9.2-22.3,13.5c-3.7,4.3-5.6,8.6-5.6,9.9H70.2c0,39,31.7,70.6,70.9,70.6
			s70.9-31.6,70.9-70.6h-66.7C146.8,158.3,151.8,147.9,152.3,146.7z M208.8,77.6c3.4,3.4-5.9,7.5-6.8,6.5
			C201.2,83.1,204.8,73.5,208.8,77.6z M109,153c3.9-3,10.2-6.9,15.2-9.5s16.7-8.3,16.7-8.3s-21.7,14-23.8,15.5
			c-2.1,1.5-9,4.6-10.7,11h-2.6C104.2,160.4,105.7,155.6,109,153z M111.4,161.8h-2.6c0.6-1.3,2.1-4.4,4-5.7
			c2.5-1.6,22.1-14.5,22.1-14.5s-18.5,14.5-19.2,15.1C115.2,157.1,112.4,159.1,111.4,161.8z M113.8,161.8c0.4-0.6,1.2-1.7,2.7-2.8
			c2.4-1.9,25.4-19.9,25.4-19.9s-18.9,17.1-23.7,22.7H113.8z M121.2,161.8c2.8-2.7,16.2-15.7,20.7-19.8c5-4.6,17-16,18.4-16.5
			c0,0-2.6,3.3-4.9,5.9c-2.4,2.6-25.7,27.7-28.4,30.4H121.2z M147.4,143.3l-14.3,18.4H130C130,161.8,146.1,144.8,147.4,143.3z
			 M144.9,149.8l-7.5,11.9h-1.6L144.9,149.8z M140,161.8l11.4-17.9l-9,17.9H140z"/>
	</g>
	<g id="XMLID_114_" class="st0">
		<ellipse id="XMLID_123_" class="st1" cx="141.9" cy="141.9" rx="141.9" ry="141.9"/>
		<path id="XMLID_120_" class="st2" d="M141.9,15.2c-70,0-126.8,56.7-126.8,126.7s56.8,126.7,126.8,126.7s126.8-56.7,126.8-126.7
			S212,15.2,141.9,15.2z M141.9,255.9c-63,0-114-51-114-114s51-114,114-114s114,51,114,114S204.8,255.9,141.9,255.9z"/>
		<polygon id="XMLID_119_" class="st2" points="80.3,135.1 129.3,172.6 202.2,99.6 209,106.3 129.9,184.2 74.9,142.3 		"/>
	</g>
	<g id="XMLID_133_">
		<path id="XMLID_141_" class="st3" d="M284.1,144.9c0,78.4-63.5,138.9-141.9,138.9S0.3,223.3,0.3,144.9S63.8,0,142.2,0
			S284.1,66.6,284.1,144.9z"/>
		<path id="XMLID_138_" class="st4" d="M142.2,15.2c-70,0-126.8,59.7-126.8,129.7s56.8,123.7,126.8,123.7S269,214.9,269,144.9
			S212.2,15.2,142.2,15.2z M142.2,255.9c-63,0-114-48-114-111s51-117,114-117s114,54,114,117S205.1,255.9,142.2,255.9z"/>
	</g>
	<g id="XMLID_124_">
		<g id="XMLID_136_">
			<polygon id="XMLID_144_" class="st5" points="208.4,182.7 175.5,182.9 165.5,146.2 218.1,146.2 			"/>
			<path id="XMLID_143_" class="st6" d="M214.2,127.2c-0.1,0-0.2,0-0.3,0c-0.6-11.1-10.3-19.9-22.1-19.9c-11.8,0-21.5,8.8-22.1,19.9
				c-0.2,0-0.4,0-0.6,0c-7.1,0-12.9,5.8-12.9,12.9c0,7.1,5.8,12.9,12.9,12.9c4.2,0,7.9-2,10.3-5.1c3.5,2.8,7.8,4.6,12.4,4.6
				c4.4,0,8.4-1.6,11.9-4.1c2.5,2.9,6.3,4.7,10.5,4.7c7.5,0,13.6-5.8,13.6-12.9C227.8,132.9,221.7,127.2,214.2,127.2z"/>
			<path id="XMLID_142_" class="st4" d="M187.7,179.7l-0.1,0c-0.6,0.1-1.2-0.3-1.3-0.9l-4-22.7c-0.1-0.6,0.3-1.2,0.9-1.3l0.1,0
				c0.6-0.1,1.2,0.3,1.3,0.9l4,22.7C188.7,179,188.3,179.6,187.7,179.7z"/>
			<path id="XMLID_137_" class="st4" d="M199.3,179.7l-0.1,0c-0.6-0.1-1-0.7-0.9-1.3l3.7-22.8c0.1-0.6,0.7-1,1.3-0.9l0.1,0
				c0.6,0.1,1,0.7,0.9,1.3l-3.7,22.8C200.5,179.4,199.9,179.8,199.3,179.7z"/>
		</g>
		<g id="XMLID_130_">
			<polygon id="XMLID_135_" class="st5" points="108.7,182.7 75.8,182.9 65.8,146.2 118.4,146.2 			"/>
			<path id="XMLID_134_" class="st6" d="M114.5,127.2c-0.1,0-0.2,0-0.3,0c-0.6-11.1-10.3-19.9-22.1-19.9c-11.8,0-21.5,8.8-22.1,19.9
				c-0.2,0-0.4,0-0.6,0c-7.1,0-12.9,5.8-12.9,12.9c0,7.1,5.8,12.9,12.9,12.9c4.2,0,7.9-2,10.3-5.1c3.5,2.8,7.8,4.6,12.4,4.6
				c4.4,0,8.4-1.6,11.9-4.1c2.5,2.9,6.3,4.7,10.5,4.7c7.5,0,13.6-5.8,13.6-12.9C128.1,132.9,122,127.2,114.5,127.2z"/>
			<path id="XMLID_132_" class="st4" d="M88,179.7l-0.1,0c-0.6,0.1-1.2-0.3-1.3-0.9l-4-22.7c-0.1-0.6,0.3-1.2,0.9-1.3l0.1,0
				c0.6-0.1,1.2,0.3,1.3,0.9l4,22.7C89,179,88.6,179.6,88,179.7z"/>
			<path id="XMLID_131_" class="st4" d="M99.6,179.7l-0.1,0c-0.6-0.1-1-0.7-0.9-1.3l3.7-22.8c0.1-0.6,0.7-1,1.3-0.9l0.1,0
				c0.6,0.1,1,0.7,0.9,1.3l-3.7,22.8C100.8,179.4,100.2,179.8,99.6,179.7z"/>
		</g>
		<g id="XMLID_125_">
			<polygon id="XMLID_129_" class="st5" points="162.5,192.8 120.7,193.1 107.9,146.4 174.9,146.4 			"/>
			<path id="XMLID_128_" class="st6" d="M170,122.1c-0.1,0-0.2,0-0.3,0c-0.8-14.1-13.1-25.3-28.1-25.3c-15,0-27.3,11.2-28.1,25.3
				c-0.3,0-0.5,0-0.8,0c-9,0-16.4,7.3-16.4,16.4c0,9,7.3,16.4,16.4,16.4c5.4,0,10.1-2.6,13.1-6.6c4.5,3.6,9.9,5.8,15.8,5.8
				c5.6,0,10.7-2,15.1-5.3c3.2,3.7,8,6,13.4,6c9.5,0,17.3-7.3,17.3-16.4C187.2,129.4,179.5,122.1,170,122.1z"/>
			<path id="XMLID_127_" class="st4" d="M136.3,189l-0.2,0c-0.8,0.1-1.5-0.4-1.6-1.1l-5.1-28.9c-0.1-0.8,0.4-1.5,1.1-1.6l0.2,0
				c0.8-0.1,1.5,0.4,1.6,1.1l5.1,28.9C137.5,188.1,137,188.8,136.3,189z"/>
			<path id="XMLID_126_" class="st4" d="M151,189l-0.2,0c-0.8-0.1-1.3-0.9-1.2-1.6l4.8-29c0.1-0.8,0.9-1.3,1.6-1.2l0.2,0
				c0.8,0.1,1.3,0.9,1.2,1.6l-4.8,29C152.5,188.6,151.8,189.2,151,189z"/>
		</g>
	</g>
</g>
</svg>
